<?xml version="1.0" standalone="no"?><!DOCTYPE svg PUBLIC "-//W3C//DTD SVG 1.1//EN" "http://www.w3.org/Graphics/SVG/1.1/DTD/svg11.dtd"><svg t="1755740405158" class="icon" viewBox="0 0 1024 1024" version="1.1" xmlns="http://www.w3.org/2000/svg" p-id="1185" xmlns:xlink="http://www.w3.org/1999/xlink" width="200" height="200"><path d="M512 512.31m-447.5 0a447.5 447.5 0 1 0 895 0 447.5 447.5 0 1 0-895 0Z" fill="#23DEB4" p-id="1186"></path><path d="M567.31 294.52H456.69c-92.88 0-168.44 75.56-168.44 168.43v39.17a168.27 168.27 0 0 0 39.57 108.44 3.68 3.68 0 0 1 0.85 3.12l-10.11 53.22a53.19 53.19 0 0 0 82.53 53.74l70.08-48.38a9.52 9.52 0 0 1 5.46-1.7h90.68c92.88 0 168.44-75.56 168.44-168.43V463c0-92.92-75.56-168.48-168.44-168.48zM429.93 510.35a22.19 22.19 0 1 1 22.18-22.19 22.2 22.2 0 0 1-22.18 22.19z m82.06 0a22.19 22.19 0 1 1 22.2-22.19A22.19 22.19 0 0 1 512 510.35z m82.08 0a22.19 22.19 0 1 1 22.18-22.19 22.2 22.2 0 0 1-22.18 22.19z" fill="#FFFFFF" p-id="1187"></path></svg>